<?xml version="1.0" encoding="UTF-8" standalone="no"?>
<!DOCTYPE svg PUBLIC "-//W3C//DTD SVG 1.1//EN" "http://www.w3.org/Graphics/SVG/1.1/DTD/svg11.dtd">
<svg width="100%" height="100%" viewBox="0 0 1200 160" version="1.1" xmlns="http://www.w3.org/2000/svg" xmlns:xlink="http://www.w3.org/1999/xlink" xml:space="preserve" xmlns:serif="http://www.serif.com/" style="fill-rule:evenodd;clip-rule:evenodd;stroke-linecap:round;stroke-linejoin:round;stroke-miterlimit:1.5;">
    <g id="Logo" transform="matrix(2,0,0,2,-200,-520)">
        <g transform="matrix(1,0,0,1,36.8943,29.3059)">
            <text x="205.492px" y="299.878px" style="font-family:'Flamenco-Light', 'Flamenco';font-weight:300;font-size:96px;">ORDINAR<tspan x="603.7px " y="299.878px ">Y</tspan></text>
        </g>
        <g transform="matrix(1,0,0,1,100.594,329.184)">
            <text x="0px" y="0px" style="font-family:'Flamenco-Light', 'Flamenco';font-weight:300;font-size:96px;fill:rgb(42,124,61);">EC<tspan x="113.184px " y="0px ">O</tspan></text>
        </g>
        <g transform="matrix(1,0,0,1,0,-152.534)">
            <g>
                <g transform="matrix(96,0,0,96,213.778,481.718)">
                    <path d="M0.135,-0.082C0.08,-0.139 0.052,-0.213 0.052,-0.304C0.052,-0.395 0.08,-0.469 0.135,-0.527C0.19,-0.584 0.262,-0.613 0.35,-0.613C0.438,-0.613 0.51,-0.584 0.565,-0.527C0.62,-0.469 0.648,-0.395 0.648,-0.304C0.648,-0.213 0.62,-0.139 0.565,-0.082C0.51,-0.024 0.438,0.005 0.35,0.005C0.262,0.005 0.19,-0.024 0.135,-0.082ZM0.147,-0.515C0.095,-0.46 0.069,-0.39 0.069,-0.304C0.069,-0.218 0.095,-0.148 0.147,-0.094C0.199,-0.039 0.267,-0.012 0.35,-0.012C0.433,-0.012 0.501,-0.039 0.553,-0.094C0.605,-0.148 0.631,-0.218 0.631,-0.304C0.631,-0.39 0.605,-0.46 0.553,-0.515C0.501,-0.569 0.433,-0.596 0.35,-0.596C0.267,-0.596 0.199,-0.569 0.147,-0.515Z" style="fill:rgb(42,124,61);fill-rule:nonzero;"/>
                </g>
                <path d="M261.682,426.278C265.807,424.006 270.575,422.87 275.986,422.87C284.434,422.87 291.314,425.638 296.626,431.174C301.938,436.71 304.594,443.83 304.594,452.534C304.594,461.238 301.938,468.358 296.626,473.894C291.314,479.43 284.434,482.198 275.986,482.198C270.575,482.198 265.807,481.063 261.682,478.791C262.241,478.484 262.788,478.155 263.322,477.806C267.013,479.646 271.234,480.566 275.986,480.566C283.986,480.566 290.482,477.958 295.474,472.742C300.466,467.526 302.962,460.79 302.962,452.534C302.962,444.278 300.466,437.542 295.474,432.326C290.482,427.11 283.986,424.502 275.986,424.502C271.234,424.502 267.013,425.423 263.322,427.263C262.787,426.914 262.24,426.585 261.682,426.278ZM260.042,427.263C260.601,427.542 261.148,427.842 261.682,428.163C259.804,429.289 258.076,430.678 256.498,432.326C251.506,437.542 249.01,444.278 249.01,452.534C249.01,460.79 251.506,467.526 256.498,472.742C258.076,474.391 259.804,475.779 261.682,476.906C261.148,477.227 260.601,477.527 260.042,477.806C258.36,476.708 256.795,475.404 255.346,473.894C250.034,468.358 247.378,461.238 247.378,452.534C247.378,443.83 250.034,436.71 255.346,431.174C256.795,429.665 258.36,428.361 260.042,427.263Z" style="fill-rule:nonzero;"/>
                <clipPath id="_clip1">
                    <path d="M226.738,473.894C221.426,468.358 218.77,461.238 218.77,452.534C218.77,443.83 221.426,436.71 226.738,431.174C232.05,425.638 238.93,422.87 247.378,422.87C255.826,422.87 262.706,425.638 268.018,431.174C273.33,436.71 275.986,443.83 275.986,452.534C275.986,461.238 273.33,468.358 268.018,473.894C262.706,479.43 255.826,482.198 247.378,482.198C238.93,482.198 232.05,479.43 226.738,473.894Z" clip-rule="nonzero"/>
                </clipPath>
                <g clip-path="url(#_clip1)">
                    <path d="M261.682,426.278C265.807,424.006 270.575,422.87 275.986,422.87C284.434,422.87 291.314,425.638 296.626,431.174C301.938,436.71 304.594,443.83 304.594,452.534C304.594,461.238 301.938,468.358 296.626,473.894C291.314,479.43 284.434,482.198 275.986,482.198C270.575,482.198 265.807,481.063 261.682,478.791C262.241,478.484 262.788,478.155 263.322,477.806C267.013,479.646 271.234,480.566 275.986,480.566C283.986,480.566 290.482,477.958 295.474,472.742C300.466,467.526 302.962,460.79 302.962,452.534C302.962,444.278 300.466,437.542 295.474,432.326C290.482,427.11 283.986,424.502 275.986,424.502C271.234,424.502 267.013,425.423 263.322,427.263C262.787,426.914 262.24,426.585 261.682,426.278ZM260.042,427.263C260.601,427.542 261.148,427.842 261.682,428.163C259.804,429.289 258.076,430.678 256.498,432.326C251.506,437.542 249.01,444.278 249.01,452.534C249.01,460.79 251.506,467.526 256.498,472.742C258.076,474.391 259.804,475.779 261.682,476.906C261.148,477.227 260.601,477.527 260.042,477.806C258.36,476.708 256.795,475.404 255.346,473.894C250.034,468.358 247.378,461.238 247.378,452.534C247.378,443.83 250.034,436.71 255.346,431.174C256.795,429.665 258.36,428.361 260.042,427.263Z" style="fill:rgb(42,124,61);fill-rule:nonzero;"/>
                </g>
            </g>
            <g>
                <g transform="matrix(2.21076e-16,-3.61044,4.06327,2.48804e-16,-1728.17,1285.21)">
                    <path d="M223.693,489.715L237.565,489.715" style="fill:none;stroke:rgb(42,124,61);stroke-width:0.39px;"/>
                </g>
                <g transform="matrix(0.673757,0,0,0.673757,27.1415,155.938)">
                    <path d="M348.098,465.72L367.667,446.15L348.098,465.72Z" style="fill:rgb(42,124,61);stroke:rgb(42,124,61);stroke-width:2.23px;"/>
                </g>
                <g transform="matrix(4.12557e-17,-0.673757,0.673757,4.12557e-17,-52.1074,704.253)">
                    <path d="M348.098,465.72L367.667,446.15L348.098,465.72Z" style="fill:rgb(42,124,61);stroke:rgb(42,124,61);stroke-width:2.23px;"/>
                </g>
                <g transform="matrix(0.673757,0,0,0.673757,27.1415,147.938)">
                    <path d="M348.098,465.72L367.667,446.15L348.098,465.72Z" style="fill:rgb(42,124,61);stroke:rgb(42,124,61);stroke-width:2.23px;"/>
                </g>
                <g transform="matrix(4.12557e-17,-0.673757,0.673757,4.12557e-17,-52.1074,696.253)">
                    <path d="M348.098,465.72L367.667,446.15L348.098,465.72Z" style="fill:rgb(42,124,61);stroke:rgb(42,124,61);stroke-width:2.23px;"/>
                </g>
                <g transform="matrix(0.673757,0,0,0.673757,27.1415,139.938)">
                    <path d="M348.098,465.72L365.569,448.249L348.098,465.72Z" style="fill:rgb(42,124,61);stroke:rgb(42,124,61);stroke-width:2.23px;"/>
                </g>
                <g transform="matrix(4.12557e-17,-0.673757,0.673757,4.12557e-17,-52.1074,688.253)">
                    <path d="M348.098,465.72L365.321,448.496L348.098,465.72Z" style="fill:rgb(42,124,61);stroke:rgb(42,124,61);stroke-width:2.23px;"/>
                </g>
                <g transform="matrix(0.673757,0,0,0.673757,27.1415,131.938)">
                    <path d="M348.098,465.72L361.541,452.276L348.098,465.72Z" style="fill:rgb(42,124,61);stroke:rgb(42,124,61);stroke-width:2.23px;"/>
                </g>
                <g transform="matrix(4.12557e-17,-0.673757,0.673757,4.12557e-17,-52.1074,680.253)">
                    <path d="M348.098,465.72L361.945,451.872L348.098,465.72Z" style="fill:rgb(42,124,61);stroke:rgb(42,124,61);stroke-width:2.23px;"/>
                </g>
                <g transform="matrix(0.673757,0,0,0.673757,27.1415,123.938)">
                    <path d="M348.098,465.72L355.794,458.024L348.098,465.72Z" style="fill:rgb(42,124,61);stroke:rgb(42,124,61);stroke-width:2.23px;"/>
                </g>
                <g transform="matrix(4.12557e-17,-0.673757,0.673757,4.12557e-17,-52.1074,672.253)">
                    <path d="M348.098,465.72L355.794,458.024L348.098,465.72Z" style="fill:rgb(42,124,61);stroke:rgb(42,124,61);stroke-width:2.23px;"/>
                </g>
            </g>
        </g>
    </g>
</svg>
